<svg width="18" height="18" viewBox="0 0 18 18" fill="none" xmlns="http://www.w3.org/2000/svg">
<g clip-path="url(#clip0_3_95)">
<g clip-path="url(#clip1_3_95)">
<path d="M19.8525 3.855H18.7125V1.5675H17.565V0.4275H16.425V-0.7125H14.1375V-1.86H11.8575V-3H6.1425V-1.86H3.855V-0.7125H1.5675V0.4275H0.4275V1.5675H-0.72V3.855H-1.86V6.1425H-3V11.8575H-1.86V14.145H-0.72V16.425H0.4275V17.5725H1.5675V18.7125H3.855V19.86H6.1425V21H11.8575V19.86H14.1375V18.7125H16.425V17.5725H17.565V16.425H18.7125V14.145H19.8525V11.8575H21V6.1425H19.8525V3.855ZM14.1375 9.57H12.9975V10.7175H11.8575V11.8575H10.71V12.9975H9.57V14.145H7.2825V15.285H6.1425V2.715H7.2825V3.855H9.57V5.0025H10.71V6.1425H11.8575V7.2825H12.9975V8.43H14.1375V9.57Z" fill="#FF6973"/>
</g>
</g>
<defs>
<clipPath id="clip0_3_95">
<rect width="18" height="18" fill="white"/>
</clipPath>
<clipPath id="clip1_3_95">
<rect width="24" height="24" fill="white" transform="translate(-3 -3)"/>
</clipPath>
</defs>
</svg>
