<svg width="18" height="18" viewBox="0 0 18 18" fill="none" xmlns="http://www.w3.org/2000/svg">
<path d="M0 3C0 1.34315 1.34315 0 3 0H15C16.6569 0 18 1.34315 18 3V15C18 16.6569 16.6569 18 15 18H3C1.34315 18 0 16.6569 0 15V3Z" fill="#FF6973"/>
<path d="M15.2749 4.73924H16V6.10435H15.2749V4.73924Z" fill="#FFB0A3"/>
<path d="M14.5545 4.05222H15.2749L15.2749 4.73924L14.5545 4.73927V4.05222Z" fill="#FFB0A3"/>
<path d="M13.8294 3.36962H14.5546L14.5545 4.05222L13.8294 4.05218V3.36962Z" fill="#FFB0A3"/>
<path d="M10.9431 11.5782H12.3886V10.8957H13.109V3.3696L13.8294 3.36962L13.8294 2.68256H13.109V2H12.3886V8.84352H10.9431V9.52608H10.2227V10.8957H10.9431V11.5782Z" fill="#FFB0A3"/>
<path d="M8.05217 8.15643H8.77729V9.52604H8.05217V8.15643Z" fill="#FFB0A3"/>
<path d="M7.33177 7.47395H8.05214L8.05217 8.15643L7.33177 8.1565V7.47395Z" fill="#FFB0A3"/>
<path d="M6.61142 6.79135H7.3318L7.33177 7.47395L6.61142 7.4739V6.79135Z" fill="#FFB0A3"/>
<path d="M3.72038 15.0001H5.16588V14.3175H5.88626V6.79144L6.61142 6.79135L6.61137 6.1044H5.88626V5.42184H5.16588V12.2654H3.72038V12.9479H3V14.3175H3.72038V15.0001Z" fill="#FFB0A3"/>
</svg>
